<svg width="1025" height="293" viewBox="0 0 1025 293" fill="none" xmlns="http://www.w3.org/2000/svg">
<path d="M123 130L166.301 252.25H79.6987L123 130Z" fill="#7C573C"/>
<path d="M520 130L563.301 252.25H476.699L520 130Z" fill="#7C573C"/>
<path d="M918 130L961.301 252.25H874.699L918 130Z" fill="#7C573C"/>
<circle cx="147" cy="103" r="49" fill="#456E3F"/>
<circle cx="937" cy="98" r="49" fill="#456E3F"/>
<circle cx="545" cy="98" r="49" fill="#456E3F"/>
<circle cx="117" cy="136" r="49" fill="#456E3F"/>
<circle cx="907" cy="131" r="49" fill="#456E3F"/>
<circle cx="515" cy="131" r="49" fill="#456E3F"/>
<circle cx="98" cy="54" r="49" fill="#456E3F"/>
<circle cx="496" cy="49" r="49" fill="#456E3F"/>
<circle cx="186" cy="152" r="49" fill="#456E3F"/>
<circle cx="976" cy="147" r="49" fill="#839867"/>
<circle cx="584" cy="147" r="49" fill="#456E3F"/>
<circle cx="67" cy="152" r="49" fill="#456E3F"/>
<circle cx="857" cy="147" r="49" fill="#456E3F"/>
<circle cx="465" cy="147" r="49" fill="#839867"/>
<circle cx="49" cy="119" r="49" fill="#294226"/>
<circle cx="839" cy="114" r="49" fill="#456E3F"/>
<circle cx="447" cy="114" r="49" fill="#456E3F"/>
<circle cx="165" cy="70" r="49" fill="#839867"/>
<circle cx="955" cy="65" r="49" fill="#456E3F"/>
<circle cx="563" cy="65" r="49" fill="#294226"/>
<circle cx="888" cy="49" r="49" fill="#294226"/>
</svg>
