<svg width="470" height="114" viewBox="0 0 470 114" fill="none" xmlns="http://www.w3.org/2000/svg">
<rect width="470" height="114" rx="57" fill="#F98989"/>
<path d="M160.403 70.288C157.883 70.288 155.603 69.736 153.563 68.632C151.547 67.504 149.963 65.968 148.811 64.024C147.659 62.056 147.083 59.848 147.083 57.4C147.083 54.952 147.659 52.756 148.811 50.812C149.963 48.844 151.559 47.308 153.599 46.204C155.639 45.076 157.919 44.512 160.439 44.512C162.407 44.512 164.207 44.848 165.839 45.52C167.471 46.168 168.863 47.14 170.015 48.436L167.675 50.704C165.779 48.712 163.415 47.716 160.583 47.716C158.711 47.716 157.019 48.136 155.507 48.976C153.995 49.816 152.807 50.98 151.943 52.468C151.103 53.932 150.683 55.576 150.683 57.4C150.683 59.224 151.103 60.88 151.943 62.368C152.807 63.832 153.995 64.984 155.507 65.824C157.019 66.664 158.711 67.084 160.583 67.084C163.391 67.084 165.755 66.076 167.675 64.06L170.015 66.328C168.863 67.624 167.459 68.608 165.803 69.28C164.171 69.952 162.371 70.288 160.403 70.288ZM201.846 50.92V70H198.534V66.976C197.766 68.032 196.794 68.836 195.618 69.388C194.442 69.94 193.146 70.216 191.73 70.216C189.882 70.216 188.226 69.808 186.762 68.992C185.298 68.176 184.146 67.036 183.306 65.572C182.49 64.084 182.082 62.38 182.082 60.46C182.082 58.54 182.49 56.848 183.306 55.384C184.146 53.92 185.298 52.78 186.762 51.964C188.226 51.148 189.882 50.74 191.73 50.74C193.098 50.74 194.358 51.004 195.51 51.532C196.662 52.036 197.622 52.792 198.39 53.8V50.92H201.846ZM192.018 67.192C193.218 67.192 194.31 66.916 195.294 66.364C196.278 65.788 197.046 64.996 197.598 63.988C198.15 62.956 198.426 61.78 198.426 60.46C198.426 59.14 198.15 57.976 197.598 56.968C197.046 55.936 196.278 55.144 195.294 54.592C194.31 54.04 193.218 53.764 192.018 53.764C190.794 53.764 189.69 54.04 188.706 54.592C187.746 55.144 186.978 55.936 186.402 56.968C185.85 57.976 185.574 59.14 185.574 60.46C185.574 61.78 185.85 62.956 186.402 63.988C186.978 64.996 187.746 65.788 188.706 66.364C189.69 66.916 190.794 67.192 192.018 67.192ZM228.581 50.74C231.005 50.74 232.925 51.448 234.341 52.864C235.781 54.256 236.501 56.308 236.501 59.02V70H233.045V59.416C233.045 57.568 232.601 56.176 231.713 55.24C230.825 54.304 229.553 53.836 227.897 53.836C226.025 53.836 224.549 54.388 223.469 55.492C222.389 56.572 221.849 58.132 221.849 60.172V70H218.393V50.92H221.705V53.8C222.401 52.816 223.337 52.06 224.513 51.532C225.713 51.004 227.069 50.74 228.581 50.74ZM261.326 70.216C259.382 70.216 257.642 69.796 256.106 68.956C254.594 68.116 253.406 66.964 252.542 65.5C251.678 64.012 251.246 62.332 251.246 60.46C251.246 58.588 251.678 56.92 252.542 55.456C253.406 53.968 254.594 52.816 256.106 52C257.642 51.16 259.382 50.74 261.326 50.74C263.054 50.74 264.59 51.088 265.934 51.784C267.302 52.48 268.358 53.488 269.102 54.808L266.474 56.5C265.874 55.588 265.13 54.904 264.242 54.448C263.354 53.992 262.37 53.764 261.29 53.764C260.042 53.764 258.914 54.04 257.906 54.592C256.922 55.144 256.142 55.936 255.566 56.968C255.014 57.976 254.738 59.14 254.738 60.46C254.738 61.804 255.014 62.992 255.566 64.024C256.142 65.032 256.922 65.812 257.906 66.364C258.914 66.916 260.042 67.192 261.29 67.192C262.37 67.192 263.354 66.964 264.242 66.508C265.13 66.052 265.874 65.368 266.474 64.456L269.102 66.112C268.358 67.432 267.302 68.452 265.934 69.172C264.59 69.868 263.054 70.216 261.326 70.216ZM291.908 67.192C294.188 67.192 296.024 66.424 297.416 64.888L299.288 67.12C298.448 68.128 297.38 68.896 296.084 69.424C294.812 69.952 293.384 70.216 291.8 70.216C289.784 70.216 287.996 69.808 286.436 68.992C284.876 68.152 283.664 66.988 282.8 65.5C281.96 64.012 281.54 62.332 281.54 60.46C281.54 58.612 281.948 56.944 282.764 55.456C283.604 53.968 284.744 52.816 286.184 52C287.648 51.16 289.292 50.74 291.116 50.74C292.844 50.74 294.416 51.136 295.832 51.928C297.248 52.696 298.376 53.788 299.216 55.204C300.056 56.62 300.488 58.252 300.512 60.1L285.356 63.052C285.836 64.372 286.64 65.392 287.768 66.112C288.92 66.832 290.3 67.192 291.908 67.192ZM291.116 53.656C289.916 53.656 288.836 53.932 287.876 54.484C286.94 55.036 286.208 55.816 285.68 56.824C285.152 57.808 284.888 58.96 284.888 60.28V60.64L297.092 58.336C296.78 56.944 296.084 55.816 295.004 54.952C293.924 54.088 292.628 53.656 291.116 53.656ZM321.151 70.216C319.303 70.216 317.875 69.712 316.867 68.704C315.859 67.672 315.355 66.232 315.355 64.384V43.288H318.811V64.096C318.811 65.128 319.051 65.92 319.531 66.472C320.035 67.024 320.779 67.3 321.763 67.3C322.363 67.3 322.927 67.18 323.455 66.94L323.635 69.784C322.843 70.072 322.015 70.216 321.151 70.216Z" fill="#1B2A24"/>
</svg>
