<svg width="470" height="114" viewBox="0 0 470 114" fill="none" xmlns="http://www.w3.org/2000/svg">
<rect width="470" height="114" rx="57" fill="#B2C59A"/>
<path d="M149.399 70.288C146.879 70.288 144.599 69.736 142.559 68.632C140.543 67.504 138.959 65.968 137.807 64.024C136.655 62.056 136.079 59.848 136.079 57.4C136.079 54.952 136.655 52.756 137.807 50.812C138.959 48.844 140.555 47.308 142.595 46.204C144.635 45.076 146.915 44.512 149.435 44.512C151.403 44.512 153.203 44.848 154.835 45.52C156.467 46.168 157.859 47.14 159.011 48.436L156.671 50.704C154.775 48.712 152.411 47.716 149.579 47.716C147.707 47.716 146.015 48.136 144.503 48.976C142.991 49.816 141.803 50.98 140.939 52.468C140.099 53.932 139.679 55.576 139.679 57.4C139.679 59.224 140.099 60.88 140.939 62.368C141.803 63.832 142.991 64.984 144.503 65.824C146.015 66.664 147.707 67.084 149.579 67.084C152.387 67.084 154.751 66.076 156.671 64.06L159.011 66.328C157.859 67.624 156.455 68.608 154.799 69.28C153.167 69.952 151.367 70.288 149.399 70.288ZM181.014 70.216C179.118 70.216 177.414 69.796 175.902 68.956C174.39 68.116 173.202 66.964 172.338 65.5C171.498 64.012 171.078 62.332 171.078 60.46C171.078 58.588 171.498 56.92 172.338 55.456C173.202 53.968 174.39 52.816 175.902 52C177.414 51.16 179.118 50.74 181.014 50.74C182.91 50.74 184.602 51.16 186.09 52C187.602 52.816 188.778 53.968 189.618 55.456C190.482 56.92 190.914 58.588 190.914 60.46C190.914 62.332 190.482 64.012 189.618 65.5C188.778 66.964 187.602 68.116 186.09 68.956C184.602 69.796 182.91 70.216 181.014 70.216ZM181.014 67.192C182.238 67.192 183.33 66.916 184.29 66.364C185.274 65.788 186.042 64.996 186.594 63.988C187.146 62.956 187.422 61.78 187.422 60.46C187.422 59.14 187.146 57.976 186.594 56.968C186.042 55.936 185.274 55.144 184.29 54.592C183.33 54.04 182.238 53.764 181.014 53.764C179.79 53.764 178.686 54.04 177.702 54.592C176.742 55.144 175.974 55.936 175.398 56.968C174.846 57.976 174.57 59.14 174.57 60.46C174.57 61.78 174.846 62.956 175.398 63.988C175.974 64.996 176.742 65.788 177.702 66.364C178.686 66.916 179.79 67.192 181.014 67.192ZM215.89 50.74C218.314 50.74 220.234 51.448 221.65 52.864C223.09 54.256 223.81 56.308 223.81 59.02V70H220.354V59.416C220.354 57.568 219.91 56.176 219.022 55.24C218.134 54.304 216.862 53.836 215.206 53.836C213.334 53.836 211.858 54.388 210.778 55.492C209.698 56.572 209.158 58.132 209.158 60.172V70H205.702V50.92H209.014V53.8C209.71 52.816 210.646 52.06 211.822 51.532C213.022 51.004 214.378 50.74 215.89 50.74ZM246.694 45.916C244.63 45.916 243.598 47.032 243.598 49.264V50.92H249.178V53.764H243.67V70H240.214V49.228C240.214 47.332 240.766 45.832 241.87 44.728C242.974 43.624 244.522 43.072 246.514 43.072C247.282 43.072 248.002 43.168 248.674 43.36C249.346 43.552 249.922 43.828 250.402 44.188L249.358 46.816C248.566 46.216 247.678 45.916 246.694 45.916ZM255.298 50.92H258.754V70H255.298V50.92ZM257.026 47.248C256.354 47.248 255.79 47.032 255.334 46.6C254.902 46.168 254.686 45.64 254.686 45.016C254.686 44.392 254.902 43.864 255.334 43.432C255.79 42.976 256.354 42.748 257.026 42.748C257.698 42.748 258.25 42.964 258.682 43.396C259.138 43.804 259.366 44.32 259.366 44.944C259.366 45.592 259.138 46.144 258.682 46.6C258.25 47.032 257.698 47.248 257.026 47.248ZM278.67 54.124C279.27 53.02 280.158 52.18 281.334 51.604C282.51 51.028 283.938 50.74 285.618 50.74V54.088C285.426 54.064 285.162 54.052 284.826 54.052C282.954 54.052 281.478 54.616 280.398 55.744C279.342 56.848 278.814 58.432 278.814 60.496V70H275.358V50.92H278.67V54.124ZM323.754 50.74C326.154 50.74 328.05 51.436 329.442 52.828C330.858 54.22 331.566 56.284 331.566 59.02V70H328.11V59.416C328.11 57.568 327.678 56.176 326.814 55.24C325.974 54.304 324.762 53.836 323.178 53.836C321.426 53.836 320.034 54.388 319.002 55.492C317.97 56.572 317.454 58.132 317.454 60.172V70H313.998V59.416C313.998 57.568 313.566 56.176 312.702 55.24C311.862 54.304 310.65 53.836 309.066 53.836C307.314 53.836 305.922 54.388 304.89 55.492C303.858 56.572 303.342 58.132 303.342 60.172V70H299.886V50.92H303.198V53.764C303.894 52.78 304.806 52.036 305.934 51.532C307.062 51.004 308.346 50.74 309.786 50.74C311.274 50.74 312.594 51.04 313.746 51.64C314.898 52.24 315.786 53.116 316.41 54.268C317.13 53.164 318.126 52.3 319.398 51.676C320.694 51.052 322.146 50.74 323.754 50.74Z" fill="#1B2A24"/>
</svg>
